<svg width="168" height="48" viewBox="0 0 168 48" fill="none" xmlns="http://www.w3.org/2000/svg">
    <path d="M0 3C0 1.34315 1.34315 0 3 0H69C70.6569 0 72 1.34315 72 3V45C72 46.6569 70.6569 48 69 48H3C1.34315 48 0 46.6569 0 45V3Z" fill="#E1E1E1"/>
    <rect y="6" width="72" height="10" fill="black"/>
    <rect x="6" y="26" width="34" height="8" fill="white"/>
    <rect x="40" y="20" width="26" height="20" fill="#FF1F00"/>
    <rect x="42" y="22" width="22" height="16" fill="white"/>
    <path d="M44.87 34V33.02H46.81V27.64L44.86 29.09V27.92L46.53 26.7H47.89V33.02H49.46V34H44.87Z" fill="black"/>
    <path d="M50.8461 34V32.98L53.2561 30.43C53.5494 30.11 53.7661 29.82 53.9061 29.56C54.0461 29.2933 54.1161 29.0333 54.1161 28.78C54.1161 28.4 54.0094 28.1033 53.7961 27.89C53.5894 27.67 53.3027 27.56 52.9361 27.56C52.5627 27.56 52.2661 27.6733 52.0461 27.9C51.8327 28.12 51.7261 28.4233 51.7261 28.81H50.6461C50.6661 28.1366 50.8827 27.6 51.2961 27.2C51.7094 26.8 52.2594 26.6 52.9461 26.6C53.6327 26.6 54.1794 26.7933 54.5861 27.18C54.9927 27.56 55.1961 28.08 55.1961 28.74C55.1961 29.1133 55.0961 29.49 54.8961 29.87C54.6961 30.2433 54.3761 30.6633 53.9361 31.13L52.1361 33.02H55.3061V34H50.8461Z" fill="black"/>
    <path d="M58.9022 34.1C58.4422 34.1 58.0422 34.0133 57.7022 33.84C57.3688 33.6666 57.1088 33.4233 56.9222 33.11C56.7355 32.79 56.6422 32.42 56.6422 32H57.7222C57.7222 32.3666 57.8255 32.6533 58.0322 32.86C58.2455 33.06 58.5388 33.16 58.9122 33.16C59.2922 33.16 59.5855 33.0566 59.7922 32.85C59.9988 32.6366 60.1022 32.3533 60.1022 32V31.48C60.1022 31.1066 59.9955 30.82 59.7822 30.62C59.5755 30.4133 59.2855 30.31 58.9122 30.31H58.0922V29.41L59.7522 27.65H56.9522V26.7H60.9422V27.64L59.2822 29.39C59.8688 29.45 60.3322 29.6666 60.6722 30.04C61.0122 30.4066 61.1822 30.8833 61.1822 31.47V32C61.1822 32.42 61.0855 32.79 60.8922 33.11C60.7055 33.4233 60.4422 33.6666 60.1022 33.84C59.7622 34.0133 59.3622 34.1 58.9022 34.1Z" fill="black"/>
    <path d="M81.04 30.43L85.668 18.21H86.76L82.132 30.43H81.04Z" fill="#B4B4B4"/>
    <path d="M96 3C96 1.34315 97.3431 0 99 0H165C166.657 0 168 1.34315 168 3V45C168 46.6569 166.657 48 165 48H99C97.3431 48 96 46.6569 96 45V3Z" fill="#E1E1E1"/>
    <path d="M102.344 39L103.888 36.728L102.44 34.6H103.432L104.208 35.816C104.245 35.88 104.283 35.9493 104.32 36.024C104.357 36.0933 104.387 36.152 104.408 36.2C104.424 36.152 104.448 36.0933 104.48 36.024C104.517 35.9493 104.557 35.88 104.6 35.816L105.376 34.6H106.368L104.92 36.736L106.456 39H105.464L104.608 37.68C104.571 37.616 104.533 37.544 104.496 37.464C104.459 37.384 104.429 37.32 104.408 37.272C104.381 37.32 104.349 37.384 104.312 37.464C104.275 37.544 104.235 37.616 104.192 37.68L103.328 39H102.344Z" fill="#646464"/>
    <path d="M107.141 39L108.685 36.728L107.237 34.6H108.229L109.005 35.816C109.042 35.88 109.08 35.9493 109.117 36.024C109.154 36.0933 109.184 36.152 109.205 36.2C109.221 36.152 109.245 36.0933 109.277 36.024C109.314 35.9493 109.354 35.88 109.397 35.816L110.173 34.6H111.165L109.717 36.736L111.253 39H110.261L109.405 37.68C109.368 37.616 109.33 37.544 109.293 37.464C109.256 37.384 109.226 37.32 109.205 37.272C109.178 37.32 109.146 37.384 109.109 37.464C109.072 37.544 109.032 37.616 108.989 37.68L108.125 39H107.141Z" fill="#646464"/>
    <path d="M111.938 39L113.482 36.728L112.034 34.6H113.026L113.802 35.816C113.839 35.88 113.876 35.9493 113.914 36.024C113.951 36.0933 113.98 36.152 114.002 36.2C114.018 36.152 114.042 36.0933 114.074 36.024C114.111 35.9493 114.151 35.88 114.194 35.816L114.97 34.6H115.962L114.514 36.736L116.05 39H115.058L114.202 37.68C114.164 37.616 114.127 37.544 114.09 37.464C114.052 37.384 114.023 37.32 114.002 37.272C113.975 37.32 113.943 37.384 113.906 37.464C113.868 37.544 113.828 37.616 113.786 37.68L112.922 39H111.938Z" fill="#646464"/>
    <path d="M121.531 39L123.075 36.728L121.627 34.6H122.619L123.395 35.816C123.433 35.88 123.47 35.9493 123.507 36.024C123.545 36.0933 123.574 36.152 123.595 36.2C123.611 36.152 123.635 36.0933 123.667 36.024C123.705 35.9493 123.745 35.88 123.787 35.816L124.563 34.6H125.555L124.107 36.736L125.643 39H124.651L123.795 37.68C123.758 37.616 123.721 37.544 123.683 37.464C123.646 37.384 123.617 37.32 123.595 37.272C123.569 37.32 123.537 37.384 123.499 37.464C123.462 37.544 123.422 37.616 123.379 37.68L122.515 39H121.531Z" fill="#646464"/>
    <path d="M126.328 39L127.872 36.728L126.424 34.6H127.416L128.192 35.816C128.23 35.88 128.267 35.9493 128.304 36.024C128.342 36.0933 128.371 36.152 128.392 36.2C128.408 36.152 128.432 36.0933 128.464 36.024C128.502 35.9493 128.542 35.88 128.584 35.816L129.36 34.6H130.352L128.904 36.736L130.44 39H129.448L128.592 37.68C128.555 37.616 128.518 37.544 128.48 37.464C128.443 37.384 128.414 37.32 128.392 37.272C128.366 37.32 128.334 37.384 128.296 37.464C128.259 37.544 128.219 37.616 128.176 37.68L127.312 39H126.328Z" fill="#646464"/>
    <path d="M131.125 39L132.669 36.728L131.221 34.6H132.213L132.989 35.816C133.027 35.88 133.064 35.9493 133.101 36.024C133.139 36.0933 133.168 36.152 133.189 36.2C133.205 36.152 133.229 36.0933 133.261 36.024C133.299 35.9493 133.339 35.88 133.381 35.816L134.157 34.6H135.149L133.701 36.736L135.237 39H134.245L133.389 37.68C133.352 37.616 133.315 37.544 133.277 37.464C133.24 37.384 133.211 37.32 133.189 37.272C133.163 37.32 133.131 37.384 133.093 37.464C133.056 37.544 133.016 37.616 132.973 37.68L132.109 39H131.125Z" fill="#646464"/>
    <path d="M140.719 39L142.263 36.728L140.815 34.6H141.807L142.583 35.816C142.62 35.88 142.658 35.9493 142.695 36.024C142.732 36.0933 142.762 36.152 142.783 36.2C142.799 36.152 142.823 36.0933 142.855 36.024C142.892 35.9493 142.932 35.88 142.975 35.816L143.751 34.6H144.743L143.295 36.736L144.831 39H143.839L142.983 37.68C142.946 37.616 142.908 37.544 142.871 37.464C142.834 37.384 142.804 37.32 142.783 37.272C142.756 37.32 142.724 37.384 142.687 37.464C142.65 37.544 142.61 37.616 142.567 37.68L141.703 39H140.719Z" fill="#646464"/>
    <path d="M145.516 39L147.06 36.728L145.612 34.6H146.604L147.38 35.816C147.417 35.88 147.455 35.9493 147.492 36.024C147.529 36.0933 147.559 36.152 147.58 36.2C147.596 36.152 147.62 36.0933 147.652 36.024C147.689 35.9493 147.729 35.88 147.772 35.816L148.548 34.6H149.54L148.092 36.736L149.628 39H148.636L147.78 37.68C147.743 37.616 147.705 37.544 147.668 37.464C147.631 37.384 147.601 37.32 147.58 37.272C147.553 37.32 147.521 37.384 147.484 37.464C147.447 37.544 147.407 37.616 147.364 37.68L146.5 39H145.516Z" fill="#646464"/>
    <path d="M150.313 39L151.857 36.728L150.409 34.6H151.401L152.177 35.816C152.214 35.88 152.251 35.9493 152.289 36.024C152.326 36.0933 152.355 36.152 152.377 36.2C152.393 36.152 152.417 36.0933 152.449 36.024C152.486 35.9493 152.526 35.88 152.569 35.816L153.345 34.6H154.337L152.889 36.736L154.425 39H153.433L152.577 37.68C152.539 37.616 152.502 37.544 152.465 37.464C152.427 37.384 152.398 37.32 152.377 37.272C152.35 37.32 152.318 37.384 152.281 37.464C152.243 37.544 152.203 37.616 152.161 37.68L151.297 39H150.313Z" fill="#646464"/>
    <path d="M155.11 39L156.654 36.728L155.206 34.6H156.198L156.974 35.816C157.011 35.88 157.048 35.9493 157.086 36.024C157.123 36.0933 157.152 36.152 157.174 36.2C157.19 36.152 157.214 36.0933 157.246 36.024C157.283 35.9493 157.323 35.88 157.366 35.816L158.142 34.6H159.134L157.686 36.736L159.222 39H158.23L157.374 37.68C157.336 37.616 157.299 37.544 157.262 37.464C157.224 37.384 157.195 37.32 157.174 37.272C157.147 37.32 157.115 37.384 157.078 37.464C157.04 37.544 157 37.616 156.958 37.68L156.094 39H155.11Z" fill="#646464"/>
    <path d="M102.43 16L104.29 8.70001H105.71L107.58 16H106.48L106.04 14.15H103.97L103.53 16H102.43ZM104.17 13.25H105.83L105.33 11.15C105.243 10.7767 105.17 10.4533 105.11 10.18C105.057 9.90668 105.02 9.71668 105 9.61001C104.98 9.71668 104.943 9.90668 104.89 10.18C104.837 10.4533 104.763 10.7733 104.67 11.14L104.17 13.25Z" fill="#646464"/>
    <path d="M108.656 16V8.70001H109.986L110.726 11.04C110.799 11.2667 110.859 11.48 110.906 11.68C110.953 11.8733 110.986 12.0233 111.006 12.13C111.026 12.0233 111.059 11.87 111.106 11.67C111.153 11.47 111.213 11.2567 111.286 11.03L112.006 8.70001H113.336V16H112.316V12.74C112.316 12.1133 112.339 11.5133 112.386 10.94C112.439 10.36 112.499 9.80668 112.566 9.28001L111.476 12.83H110.506L109.406 9.32001C109.473 9.80668 109.536 10.3267 109.596 10.88C109.656 11.4333 109.686 12.0533 109.686 12.74V16H108.656Z" fill="#646464"/>
    <path d="M114.932 16V8.70001H119.222V9.66001H115.992V11.74H118.872V12.67H115.992V15.04H119.222V16H114.932Z" fill="#646464"/>
    <path d="M120.328 16L122.388 12.28L120.448 8.70001H121.668L122.688 10.69C122.748 10.8167 122.808 10.9433 122.868 11.07C122.928 11.1967 122.975 11.2933 123.008 11.36C123.035 11.2933 123.075 11.1967 123.128 11.07C123.188 10.9433 123.252 10.8167 123.318 10.69L124.358 8.70001H125.528L123.588 12.24L125.648 16H124.428L123.298 13.84C123.232 13.7133 123.168 13.5867 123.108 13.46C123.048 13.3267 123.002 13.2233 122.968 13.15C122.942 13.2233 122.898 13.3267 122.838 13.46C122.778 13.5867 122.718 13.71 122.658 13.83L121.508 16H120.328Z" fill="#646464"/>
    <rect x="132" y="4" width="32" height="20" fill="#FF1F00"/>
    <rect x="134" y="6" width="28" height="16" fill="white"/>
    <path d="M136.87 17.9996V17.0196H138.81V11.6396L136.86 13.0896V11.9196L138.53 10.6996H139.89V17.0196H141.46V17.9996H136.87Z" fill="black"/>
    <path d="M142.846 17.9996V16.9796L145.256 14.4296C145.549 14.1096 145.766 13.8196 145.906 13.5596C146.046 13.2929 146.116 13.0329 146.116 12.7796C146.116 12.3996 146.009 12.1029 145.796 11.8896C145.589 11.6696 145.303 11.5596 144.936 11.5596C144.563 11.5596 144.266 11.6729 144.046 11.8996C143.833 12.1196 143.726 12.4229 143.726 12.8096H142.646C142.666 12.1363 142.883 11.5996 143.296 11.1996C143.709 10.7996 144.259 10.5996 144.946 10.5996C145.633 10.5996 146.179 10.7929 146.586 11.1796C146.993 11.5596 147.196 12.0796 147.196 12.7396C147.196 13.1129 147.096 13.4896 146.896 13.8696C146.696 14.2429 146.376 14.6629 145.936 15.1296L144.136 17.0196H147.306V17.9996H142.846Z" fill="black"/>
    <path d="M150.902 18.0996C150.442 18.0996 150.042 18.0129 149.702 17.8396C149.369 17.6663 149.109 17.4229 148.922 17.1096C148.735 16.7896 148.642 16.4196 148.642 15.9996H149.722C149.722 16.3663 149.825 16.6529 150.032 16.8596C150.245 17.0596 150.539 17.1596 150.912 17.1596C151.292 17.1596 151.585 17.0563 151.792 16.8496C151.999 16.6363 152.102 16.3529 152.102 15.9996V15.4796C152.102 15.1063 151.995 14.8196 151.782 14.6196C151.575 14.4129 151.285 14.3096 150.912 14.3096H150.092V13.4096L151.752 11.6496H148.952V10.6996H152.942V11.6396L151.282 13.3896C151.869 13.4496 152.332 13.6663 152.672 14.0396C153.012 14.4063 153.182 14.8829 153.182 15.4696V15.9996C153.182 16.4196 153.085 16.7896 152.892 17.1096C152.705 17.4229 152.442 17.6663 152.102 17.8396C151.762 18.0129 151.362 18.0996 150.902 18.0996Z" fill="black"/>
    <path d="M157.898 17.9996V16.4796H154.628V14.8596L157.308 10.6996H158.498L155.678 15.1196V15.5096H157.898V13.7996H158.978V17.9996H157.898Z" fill="black"/>
</svg>
